<?xml version="1.0" encoding="UTF-8" standalone="no" ?>
<!DOCTYPE svg PUBLIC "-//W3C//DTD SVG 1.1//EN" "http://www.w3.org/Graphics/SVG/1.1/DTD/svg11.dtd">
<svg xmlns="http://www.w3.org/2000/svg" xmlns:xlink="http://www.w3.org/1999/xlink" version="1.1" width="1080" height="1080" viewBox="0 0 1080 1080" xml:space="preserve">
<desc>Created with Fabric.js 5.2.4</desc>
<defs>
</defs>
<g transform="matrix(1 0 0 1 540 540)" id="9c22e55f-c10d-4079-aaeb-e686dbd8199d"  >
<rect style="stroke: none; stroke-width: 1; stroke-dasharray: none; stroke-linecap: butt; stroke-dashoffset: 0; stroke-linejoin: miter; stroke-miterlimit: 4; fill: rgb(255,255,255); fill-rule: nonzero; opacity: 1; visibility: hidden;" vector-effect="non-scaling-stroke"  x="-540" y="-540" rx="0" ry="0" width="1080" height="1080" />
</g>
<g transform="matrix(1 0 0 1 540 540)" id="2431284a-d58a-42ce-8305-ae47b0c245af"  >
</g>
<g transform="matrix(2.02 0 0 2.02 540 540)" id="52fcb3dc-e014-4bc4-8072-be34f6f30bd9"  >
<path style="stroke: rgb(0,0,0); stroke-width: 0; stroke-dasharray: none; stroke-linecap: butt; stroke-dashoffset: 0; stroke-linejoin: miter; stroke-miterlimit: 4; fill: rgb(0,0,0); fill-rule: nonzero; opacity: 1;" vector-effect="non-scaling-stroke"  transform=" translate(-224, -256)" d="M 160 112 C 160 76.7 188.7 48 224 48 C 259.3 48 288 76.7 288 112 L 288 160 L 160 160 L 160 112 z M 112 160 L 48 160 C 21.5 160 0 181.5 0 208 L 0 416 C 0 469 43 512 96 512 L 352 512 C 405 512 448 469 448 416 L 448 208 C 448 181.5 426.5 160 400 160 L 336 160 L 336 112 C 336 50.1 285.9 0 224 0 C 162.10000000000002 0 112 50.1 112 112 L 112 160 z M 136 256 C 122.7 256 112 245.3 112 232 C 112 218.7 122.7 208 136 208 C 149.3 208 160 218.7 160 232 C 160 245.3 149.3 256 136 256 z M 336 232 C 336 245.3 325.3 256 312 256 C 298.7 256 288 245.3 288 232 C 288 218.7 298.7 208 312 208 C 325.3 208 336 218.7 336 232 z" stroke-linecap="round" />
</g>
</svg>